<svg data-v-2bb1f684="" class="bg-left" height="90vh" viewBox="0 0 960 1080" fill="none" xmlns="http://www.w3.org/2000/svg" xmlns:xlink="http://www.w3.org/1999/xlink"><g data-v-2bb1f684="" clip-path="url(#clip39_25)"><path data-v-2bb1f684="" id="path" d="M491.5 179.721L229.724 179.721L176.45 86.6337L-4.34894 86.0001" stroke="#0078D6" stroke-opacity="0.400000" stroke-width="2.000000"></path><path data-v-2bb1f684="" id="path" d="M127 765.1L127 918.4L259.7 995L392.4 995" stroke="#0078D6" stroke-opacity="0.400000" stroke-width="2.000000"></path><ellipse data-v-2bb1f684="" id="circle" rx="8.700011" ry="8.700013" transform="matrix(0.803296 -0.59558 0.59558 0.803296 433.9 1052.9)" fill="#808080" fill-opacity="0.13"></ellipse><ellipse data-v-2bb1f684="" id="circle" rx="8.700011" ry="8.700013" transform="matrix(0.803296 -0.59558 0.59558 0.803296 433.9 1052.9)" stroke="#0078D6" stroke-opacity="0.4"></ellipse><path data-v-2bb1f684="" id="path" d="M94 706L94 977.511L234.312 1054L425 1054" stroke="#0078D6" stroke-opacity="0.400000" stroke-width="2.000000"></path><ellipse data-v-2bb1f684="" id="circle" rx="8.700000" ry="8.700012" transform="matrix(0.803296 -0.59558 0.59558 0.803296 42.8101 434.801)" fill="#808080" fill-opacity="0.13"></ellipse><ellipse data-v-2bb1f684="" id="circle" rx="8.700000" ry="8.700012" transform="matrix(0.803296 -0.59558 0.59558 0.803296 42.8101 434.801)" stroke="#0078D6" stroke-opacity="0.4"></ellipse><circle data-v-2bb1f684="" id="circle" r="8.699996" transform="matrix(0.803296 -0.59558 0.59558 0.803296 499.7 181.295)" fill="#808080" fill-opacity="0.13"></circle><circle data-v-2bb1f684="" id="circle" r="8.699996" transform="matrix(0.803296 -0.59558 0.59558 0.803296 499.7 181.295)" stroke="#0078D6" stroke-opacity="0.4"></circle><circle data-v-2bb1f684="" id="circle" r="6.000000" transform="matrix(0.803296 -0.59558 0.59558 0.803296 127.008 757.978)" fill="#808080" fill-opacity="0.13"></circle><circle data-v-2bb1f684="" id="circle" r="6.000000" transform="matrix(0.803296 -0.59558 0.59558 0.803296 127.008 757.978)" stroke="#0078D6" stroke-opacity="0.4"></circle><ellipse data-v-2bb1f684="" id="circle" rx="11.000000" ry="10.999999" transform="matrix(0.803296 -0.59558 0.59558 0.803296 127.008 757.979)" stroke="#0078D6" stroke-opacity="0.4" stroke-width="4.000000" stroke-linejoin="round"></ellipse><ellipse data-v-2bb1f684="" id="circle" rx="7.800001" ry="7.800003" transform="matrix(0.803296 -0.59558 0.59558 0.803296 72.3015 273.102)" fill="#808080" fill-opacity="0.13"></ellipse><ellipse data-v-2bb1f684="" id="circle" rx="7.800001" ry="7.800003" transform="matrix(0.803296 -0.59558 0.59558 0.803296 72.3015 273.102)" stroke="#0078D6" stroke-opacity="0.4"></ellipse><ellipse data-v-2bb1f684="" id="circle" rx="14.300001" ry="14.300003" transform="matrix(0.803296 -0.59558 0.59558 0.803296 72.3021 273.102)" stroke="#0078D6" stroke-opacity="0.4" stroke-width="4.000000" stroke-linejoin="round"></ellipse><ellipse data-v-2bb1f684="" id="circle" rx="6.899994" ry="6.900024" transform="matrix(0.803296 -0.59558 0.59558 0.803296 392.427 995.014)" fill="#808080" fill-opacity="0.13"></ellipse><ellipse data-v-2bb1f684="" id="circle" rx="6.899994" ry="6.900024" transform="matrix(0.803296 -0.59558 0.59558 0.803296 392.427 995.014)" stroke="#0078D6" stroke-opacity="0.4"></ellipse><ellipse data-v-2bb1f684="" id="circle" rx="12.600006" ry="12.599976" transform="matrix(0.803296 -0.59558 0.59558 0.803296 392.427 995.013)" stroke="#0078D6" stroke-opacity="0.4" stroke-width="4.000000" stroke-linejoin="round"></ellipse><path data-v-2bb1f684="" id="path" d="M72.3 273.1L72.3 884.3" stroke="#0078D6" stroke-opacity="0.400000" stroke-width="2.000000" stroke-linejoin="round" stroke-linecap="round" stroke-dasharray="12"></path><circle data-v-2bb1f684="" id="circle" r="8.699996" transform="matrix(-0.610169 0.792271 0.792271 0.610169 745.379 1048.71)" fill="#48A9F8" fill-opacity="0.13"></circle><circle data-v-2bb1f684="" id="circle" r="8.699996" transform="matrix(-0.610169 0.792271 0.792271 0.610169 745.379 1048.71)" stroke="#0078D6" stroke-opacity="0.4"></circle><circle data-v-2bb1f684="" id="circle" r="8.699996" transform="matrix(-0.610169 0.792271 0.792271 0.610169 697.387 1047.83)" fill="#48A9F8" fill-opacity="0.13"></circle><circle data-v-2bb1f684="" id="circle" r="8.699996" transform="matrix(-0.610169 0.792271 0.792271 0.610169 697.387 1047.83)" stroke="#0078D6" stroke-opacity="0.4"></circle><circle data-v-2bb1f684="" id="circle" r="8.699996" transform="matrix(-0.610169 0.792271 0.792271 0.610169 721.383 1048.27)" fill="#48A9F8" fill-opacity="0.13"></circle><circle data-v-2bb1f684="" id="circle" r="8.699996" transform="matrix(-0.610169 0.792271 0.792271 0.610169 721.383 1048.27)" stroke="#0078D6" stroke-opacity="0.4"></circle><circle data-v-2bb1f684="" id="circle" r="8.699996" transform="matrix(-0.610169 0.792271 0.792271 0.610169 673.409 1048.39)" fill="#48A9F8" fill-opacity="0.13"></circle><circle data-v-2bb1f684="" id="circle" r="8.699996" transform="matrix(-0.610169 0.792271 0.792271 0.610169 673.409 1048.39)" stroke="#0078D6" stroke-opacity="0.4"></circle><circle data-v-2bb1f684="" id="circle" r="8.699996" transform="matrix(0.803296 -0.59558 0.59558 0.803296 28.1702 994.17)" fill="#48A9F8" fill-opacity="0.13"></circle><circle data-v-2bb1f684="" id="circle" r="8.699996" transform="matrix(0.803296 -0.59558 0.59558 0.803296 28.1702 994.17)" stroke="#0078D6" stroke-opacity="0.4"></circle><circle data-v-2bb1f684="" id="circle" r="8.699996" transform="matrix(0.803296 -0.59558 0.59558 0.803296 28.1702 946.17)" fill="#48A9F8" fill-opacity="0.13"></circle><circle data-v-2bb1f684="" id="circle" r="8.699996" transform="matrix(0.803296 -0.59558 0.59558 0.803296 28.1702 946.17)" stroke="#0078D6" stroke-opacity="0.4"></circle><circle data-v-2bb1f684="" id="circle" r="8.699996" transform="matrix(0.803296 -0.59558 0.59558 0.803296 28.1702 970.17)" fill="#48A9F8" fill-opacity="0.13"></circle><circle data-v-2bb1f684="" id="circle" r="8.699996" transform="matrix(0.803296 -0.59558 0.59558 0.803296 28.1702 970.17)" stroke="#0078D6" stroke-opacity="0.4"></circle><circle data-v-2bb1f684="" id="circle" r="8.699996" transform="matrix(0.803296 -0.59558 0.59558 0.803296 27.1702 922.17)" fill="#48A9F8" fill-opacity="0.13"></circle><circle data-v-2bb1f684="" id="circle" r="8.699996" transform="matrix(0.803296 -0.59558 0.59558 0.803296 27.1702 922.17)" stroke="#0078D6" stroke-opacity="0.4"></circle><ellipse data-v-2bb1f684="" id="circle" rx="8.700000" ry="8.700012" transform="matrix(0.803296 -0.59558 0.59558 0.803296 94.1702 701.17)" fill="#808080" fill-opacity="0.13"></ellipse><ellipse data-v-2bb1f684="" id="circle" rx="8.700000" ry="8.700012" transform="matrix(0.803296 -0.59558 0.59558 0.803296 94.1702 701.17)" stroke="#0078D6" stroke-opacity="0.4"></ellipse><path data-v-2bb1f684="" id="path" d="M549.141 224.648L210.249 226.937L137.507 102.439" stroke="#0078D6" stroke-opacity="0.400000" stroke-width="2.000000"></path><circle data-v-2bb1f684="" id="circle" r="8.699996" transform="matrix(0.803296 -0.59558 0.59558 0.803296 558.17 224.17)" fill="#808080" fill-opacity="0.13"></circle><circle data-v-2bb1f684="" id="circle" r="8.699996" transform="matrix(0.803296 -0.59558 0.59558 0.803296 558.17 224.17)" stroke="#0078D6" stroke-opacity="0.4"></circle><path data-v-2bb1f684="" id="path" d="M434 133.721L262.399 133.721L209.124 40.6336L48.5 40.6336" stroke="#0078D6" stroke-opacity="0.400000" stroke-width="2.000000"></path><ellipse data-v-2bb1f684="" id="circle" rx="8.700000" ry="8.700012" transform="matrix(0.803296 -0.59558 0.59558 0.803296 42.1702 41.1702)" fill="#808080" fill-opacity="0.13"></ellipse><ellipse data-v-2bb1f684="" id="circle" rx="8.700000" ry="8.700012" transform="matrix(0.803296 -0.59558 0.59558 0.803296 42.1702 41.1702)" stroke="#0078D6" stroke-opacity="0.4"></ellipse><ellipse data-v-2bb1f684="" id="circle" rx="8.700000" ry="8.700012" transform="matrix(0.803296 -0.59558 0.59558 0.803296 442.17 133.17)" fill="#808080" fill-opacity="0.13"></ellipse><ellipse data-v-2bb1f684="" id="circle" rx="8.700000" ry="8.700012" transform="matrix(0.803296 -0.59558 0.59558 0.803296 442.17 133.17)" stroke="#0078D6" stroke-opacity="0.4"></ellipse><path data-v-2bb1f684="" id="path" d="M210.5 1018L210.5 1017.1L209.7 1016.7M208.2 1015.9L204.8 1013.9" stroke="#0078D6" stroke-opacity="0.400000" stroke-linejoin="round"></path><path data-v-2bb1f684="" id="path" d="M144.2 978.9L197.7 1009.7" stroke="#0078D6" stroke-opacity="0.400000" stroke-linejoin="round" stroke-linecap="round" stroke-dasharray="8.2 8.2"></path><path data-v-2bb1f684="" id="path" d="M140.7 976.8L137.2 974.8M136.5 974.4L135.7 974L135 974.4M133.5 975.3L130 977.3" stroke="#0078D6" stroke-opacity="0.400000" stroke-linejoin="round"></path><path data-v-2bb1f684="" id="path" d="M69.5 1012.2L122.9 981.4" stroke="#0078D6" stroke-opacity="0.400000" stroke-linejoin="round" stroke-linecap="round" stroke-dasharray="8.2243 8.2243"></path><path data-v-2bb1f684="" id="path" d="M65.9 1014.3L62.5 1016.3M61.7 1016.7L61 1017.1L61 1018M61 1019.7L61 1023.7" stroke="#0078D6" stroke-opacity="0.400000" stroke-linejoin="round"></path><path data-v-2bb1f684="" id="path" d="M61 1031.9L61 1093.6" stroke="#0078D6" stroke-opacity="0.400000" stroke-linejoin="round" stroke-linecap="round" stroke-dasharray="8.2243 8.2243"></path><path data-v-2bb1f684="" id="path" d="M210.5 1096.9L210.5 1100.9" stroke="#0078D6" stroke-opacity="0.400000" stroke-linejoin="round" stroke-linecap="round"></path><path data-v-2bb1f684="" id="path" d="M210.5 1027L210.5 1088.6" stroke="#0078D6" stroke-opacity="0.400000" stroke-linejoin="round" stroke-linecap="round" stroke-dasharray="8.2243 8.2243"></path><path data-v-2bb1f684="" id="path" d="M210.5 1018.9L210.5 1022.9" stroke="#0078D6" stroke-opacity="0.400000" stroke-linejoin="round" stroke-linecap="round"></path><g data-v-2bb1f684="" opacity="0.000100"><rect data-v-2bb1f684="" id="矩形" x="-147.000000" y="474.000000" width="285.000000" height="276.000000" fill="#000000"></rect></g><path data-v-2bb1f684="" id="形状" d="M103.488 642.645L85.7982 627.552C86.6354 622.431 87.0675 617.202 87.0675 611.973C87.0675 606.744 86.6354 601.515 85.7982 596.394L103.488 581.3C106.216 578.982 107.215 575.209 106 571.813L105.756 571.112C100.868 557.5 93.6302 544.994 84.2318 533.943L83.7457 533.377C81.423 530.655 77.6691 529.631 74.2661 530.817L52.3093 538.606C44.2072 531.976 35.1598 526.747 25.3832 523.081L21.1431 500.171C20.4949 496.64 17.7131 493.891 14.1752 493.244L13.446 493.109C-0.624756 490.576 -15.4247 490.576 -29.4954 493.109L-30.2246 493.244C-33.7625 493.891 -36.5443 496.64 -37.1924 500.171L-41.4596 523.189C-51.1552 526.855 -60.1486 532.057 -68.1967 538.66L-90.3156 530.817C-93.6914 529.631 -97.4724 530.628 -99.795 533.377L-100.281 533.943C-109.68 545.021 -116.918 557.527 -121.806 571.112L-122.049 571.813C-123.264 575.182 -122.265 578.955 -119.537 581.3L-101.632 596.556C-102.469 601.623 -102.874 606.798 -102.874 611.946C-102.874 617.121 -102.469 622.296 -101.632 627.336L-119.537 642.591C-122.265 644.909 -123.264 648.683 -122.049 652.079L-121.806 652.78C-116.918 666.364 -109.68 678.897 -100.281 689.948L-99.795 690.514C-97.4724 693.236 -93.7184 694.261 -90.3156 693.075L-68.1967 685.231C-60.1486 691.835 -51.1552 697.064 -41.4596 700.702L-37.1924 723.72C-36.5443 727.251 -33.7625 730 -30.2246 730.647L-29.4954 730.782C-22.4465 732.049 -15.2356 732.696 -8.02472 732.696C-0.813782 732.696 6.42413 732.049 13.446 730.782L14.1752 730.647C17.7131 730 20.4949 727.251 21.1431 723.72L25.3832 700.81C35.1598 697.145 44.2072 691.943 52.3093 685.285L74.2661 693.075C77.642 694.261 81.423 693.263 83.7457 690.514L84.2318 689.948C93.6302 678.87 100.868 666.364 105.756 652.78L106 652.079C107.215 648.764 106.216 644.99 103.488 642.645ZM67.6199 612C67.6199 607.822 67.2688 603.644 66.5936 599.574L64.8381 588.82L85.0125 571.597C81.9337 564.589 78.0987 557.932 73.5074 551.76L48.4448 560.627L39.9646 553.673C33.5099 548.39 26.299 544.24 18.5479 541.329L8.25818 537.474L3.42389 511.33C-4.19214 510.467 -11.9432 510.467 -19.5322 511.33L-24.3665 537.528L-34.6022 541.383C-42.2993 544.294 -49.4562 548.444 -55.8569 553.7L-64.3372 560.681L-89.5618 551.733C-94.153 557.905 -98.015 564.535 -101.067 571.57L-80.6764 588.955L-82.4319 599.736C-83.1071 603.752 -83.4312 607.876 -83.4312 612C-83.4312 616.097 -83.0801 620.247 -82.4319 624.263L-80.6764 635.045L-101.067 652.429C-97.988 659.437 -94.153 666.095 -89.5618 672.267L-64.3372 663.319L-55.8569 670.299C-49.4562 675.555 -42.2993 679.706 -34.6022 682.617L-24.3935 686.525L-19.5592 712.724C-11.9432 713.586 -4.19214 713.586 3.39685 712.724L8.23114 686.579L18.5209 682.725C26.299 679.814 33.4828 675.663 39.9376 670.38L48.4178 663.426L73.4805 672.294C78.0717 666.122 81.9337 659.491 84.9855 652.456L64.8112 635.233L66.5936 624.425C67.2688 620.355 67.6199 616.177 67.6199 612ZM-8.02692 561.867C-34.2778 561.867 -55.5595 583.106 -55.5595 609.305C-55.5595 635.503 -34.2778 656.742 -8.02692 656.742C18.2241 656.742 39.5057 635.503 39.5057 609.305C39.5057 583.106 18.2241 561.867 -8.02692 561.867ZM-8.02686 639.492C0.0482788 639.492 7.63727 636.339 13.3628 630.651C19.0613 624.937 22.2212 617.364 22.2212 609.305C22.2212 601.246 19.0613 593.672 13.3628 587.958C7.63727 582.244 0.0482788 579.117 -8.02686 579.117C-16.102 579.117 -23.691 582.244 -29.4166 587.958C-35.1151 593.672 -38.2749 601.246 -38.2749 609.305C-38.2749 617.364 -35.1151 624.937 -29.4166 630.651C-23.691 636.339 -16.102 639.492 -8.02686 639.492Z" clip-rule="evenodd" fill-rule="evenodd" fill="#48A9F8" fill-opacity="0.650000"></path><path data-v-2bb1f684="" id="path" d="M435 49L558.055 111L681 49L681 -75L557.945 -137L435 -75L435 49Z" stroke="#0078D6" stroke-opacity="0.400000" stroke-linejoin="round"></path><path data-v-2bb1f684="" id="形状" d="M519.296 1222.52L533.973 1204.48C539.112 1205.2 544.35 1205.51 549.577 1205.39C554.805 1205.26 560.022 1204.71 565.122 1203.75L580.624 1221.09C583.005 1223.76 586.801 1224.67 590.168 1223.38L590.863 1223.12C604.356 1217.91 616.69 1210.39 627.519 1200.73L628.074 1200.23C630.741 1197.85 631.677 1194.07 630.412 1190.7L622.113 1168.93C628.553 1160.67 633.57 1151.51 637.006 1141.65L659.811 1136.87C663.326 1136.14 666.01 1133.3 666.574 1129.75L666.692 1129.01C668.897 1114.89 668.552 1100.09 665.691 1086.08L665.539 1085.36C664.81 1081.84 661.997 1079.12 658.452 1078.55L635.34 1074.82C631.45 1065.22 626.039 1056.35 619.25 1048.45L626.576 1026.16C627.683 1022.76 626.598 1019 623.795 1016.74L623.218 1016.27C611.924 1007.13 599.252 1000.19 585.558 995.616L584.851 995.39C581.455 994.253 577.706 995.34 575.425 998.122L560.591 1016.38C555.506 1015.66 550.323 1015.38 545.176 1015.5C540.003 1015.62 534.838 1016.14 529.819 1017.1L514.15 999.551C511.769 996.878 507.974 995.967 504.607 997.261L503.912 997.52C490.445 1002.72 478.084 1010.25 467.255 1019.91L466.701 1020.4C464.034 1022.79 463.097 1026.57 464.362 1029.94L472.719 1051.87C466.305 1060.07 461.287 1069.18 457.875 1078.96L434.963 1083.76C431.448 1084.49 428.765 1087.34 428.2 1090.89L428.083 1091.62C426.981 1098.7 426.502 1105.92 426.67 1113.13C426.838 1120.34 427.654 1127.56 429.084 1134.55L429.235 1135.28C429.965 1138.8 432.778 1141.52 436.323 1142.08L459.326 1145.79C463.218 1155.48 468.63 1164.4 475.474 1172.35L468.199 1194.48C467.092 1197.88 468.177 1201.64 470.98 1203.9L471.557 1204.37C482.851 1213.51 495.522 1220.45 509.217 1225.02L509.923 1225.25C513.266 1226.39 517.015 1225.3 519.296 1222.52ZM549.097 1185.94C553.273 1185.85 557.442 1185.4 561.495 1184.63L572.205 1182.62L589.894 1202.39C596.828 1199.15 603.394 1195.16 609.458 1190.43L600.008 1165.58L606.763 1156.94C611.894 1150.36 615.875 1143.05 618.605 1135.24L622.218 1124.86L648.243 1119.42C648.927 1111.78 648.747 1104.04 647.708 1096.47L621.404 1092.25L617.312 1082.1C614.222 1074.48 609.906 1067.42 604.502 1061.14L597.325 1052.83L605.683 1027.4C599.406 1022.95 592.687 1019.25 585.583 1016.36L568.678 1037.15L557.859 1035.65C553.828 1035.07 549.698 1034.84 545.575 1034.93C541.48 1035.03 537.338 1035.48 533.338 1036.22L522.601 1038.22L504.746 1018.25C497.811 1021.49 491.245 1025.48 485.182 1030.21L494.716 1055.22L487.934 1063.86C482.829 1070.38 478.846 1077.63 476.116 1085.4L472.447 1095.69L446.368 1101.14C445.683 1108.77 445.864 1116.52 446.903 1124.09L473.153 1128.31L477.246 1138.51C480.338 1146.21 484.655 1153.3 490.087 1159.63L497.237 1167.95L488.956 1193.21C495.233 1197.65 501.952 1201.36 509.056 1204.25L525.804 1183.68L536.651 1185.21C540.735 1185.79 544.92 1186.04 549.097 1185.94ZM597.452 1109.15C596.84 1082.91 575.111 1062.12 548.92 1062.74C522.728 1063.35 501.991 1085.12 502.603 1111.36C503.215 1137.6 524.944 1158.39 551.136 1157.77C577.327 1157.16 598.064 1135.39 597.452 1109.15ZM519.848 1110.96C520.037 1119.03 523.366 1126.54 529.185 1132.14C535.031 1137.7 542.676 1140.68 550.733 1140.49C558.79 1140.31 566.288 1136.97 571.867 1131.14C577.446 1125.28 580.395 1117.62 580.207 1109.55C580.019 1101.48 576.716 1093.96 570.87 1088.37C565.025 1082.81 557.379 1079.83 549.323 1080.01C541.266 1080.2 533.768 1083.54 528.188 1089.37C522.636 1095.23 519.66 1102.89 519.848 1110.96Z" clip-rule="evenodd" fill-rule="evenodd" fill="#48A9F8" fill-opacity="0.650000"></path><path data-v-2bb1f684="" id="path" d="M407 643.7L519.4 708.6L631.8 643.7L631.8 513.9L519.4 449L407 513.9L407 643.7Z" stroke="#0078D6" stroke-opacity="0.400000" stroke-linejoin="round"></path><path data-v-2bb1f684="" id="path" d="M193 829.5L354.4 922.7L515.7 829.5L515.7 643.2L354.4 550L193 643.2L193 829.5Z" stroke="#0078D6" stroke-opacity="0.400000" stroke-width="4.000000" stroke-linejoin="round"></path></g></svg>