<svg data-v-2bb1f684="" class="bg-right" height="90vh" viewBox="0 0 960 1080" fill="none" xmlns="http://www.w3.org/2000/svg" xmlns:xlink="http://www.w3.org/1999/xlink"><g data-v-2bb1f684="" clip-path="url(#clip40_99)"><path data-v-2bb1f684="" id="path" d="M468.5 900.279L730.276 900.279L783.55 993.366L964.349 994" stroke="#0078D6" stroke-opacity="0.400000" stroke-width="2.000000"></path><path data-v-2bb1f684="" id="path" d="M833 314.9L833 161.6L700.3 84.9998L567.6 84.9998" stroke="#0078D6" stroke-opacity="0.400000" stroke-width="2.000000"></path><ellipse data-v-2bb1f684="" id="circle" rx="8.700011" ry="8.700013" transform="matrix(-0.803296 0.59558 -0.59558 -0.803296 526.1 27.1)" fill="#808080" fill-opacity="0.13"></ellipse><ellipse data-v-2bb1f684="" id="circle" rx="8.700011" ry="8.700013" transform="matrix(-0.803296 0.59558 -0.59558 -0.803296 526.1 27.1)" stroke="#0078D6" stroke-opacity="0.4"></ellipse><path data-v-2bb1f684="" id="path" d="M866 374L866 102.488L725.688 25.9998L535 25.9998" stroke="#0078D6" stroke-opacity="0.400000" stroke-width="2.000000"></path><ellipse data-v-2bb1f684="" id="circle" rx="8.700000" ry="8.700012" transform="matrix(-0.803296 0.59558 -0.59558 -0.803296 917.19 645.199)" fill="#808080" fill-opacity="0.13"></ellipse><ellipse data-v-2bb1f684="" id="circle" rx="8.700000" ry="8.700012" transform="matrix(-0.803296 0.59558 -0.59558 -0.803296 917.19 645.199)" stroke="#0078D6" stroke-opacity="0.4"></ellipse><circle data-v-2bb1f684="" id="circle" r="8.699996" transform="matrix(-0.803296 0.59558 -0.59558 -0.803296 460.3 898.705)" fill="#808080" fill-opacity="0.13"></circle><circle data-v-2bb1f684="" id="circle" r="8.699996" transform="matrix(-0.803296 0.59558 -0.59558 -0.803296 460.3 898.705)" stroke="#0078D6" stroke-opacity="0.4"></circle><circle data-v-2bb1f684="" id="circle" r="6.000000" transform="matrix(-0.803296 0.59558 -0.59558 -0.803296 832.992 322.022)" fill="#808080" fill-opacity="0.13"></circle><circle data-v-2bb1f684="" id="circle" r="6.000000" transform="matrix(-0.803296 0.59558 -0.59558 -0.803296 832.992 322.022)" stroke="#0078D6" stroke-opacity="0.4"></circle><ellipse data-v-2bb1f684="" id="circle" rx="11.000000" ry="10.999999" transform="matrix(-0.803296 0.59558 -0.59558 -0.803296 832.992 322.021)" stroke="#0078D6" stroke-opacity="0.4" stroke-width="4.000000" stroke-linejoin="round"></ellipse><ellipse data-v-2bb1f684="" id="circle" rx="7.800001" ry="7.800003" transform="matrix(-0.803296 0.59558 -0.59558 -0.803296 887.698 806.898)" fill="#808080" fill-opacity="0.13"></ellipse><ellipse data-v-2bb1f684="" id="circle" rx="7.800001" ry="7.800003" transform="matrix(-0.803296 0.59558 -0.59558 -0.803296 887.698 806.898)" stroke="#0078D6" stroke-opacity="0.4"></ellipse><ellipse data-v-2bb1f684="" id="circle" rx="14.300001" ry="14.300003" transform="matrix(-0.803296 0.59558 -0.59558 -0.803296 887.698 806.898)" stroke="#0078D6" stroke-opacity="0.4" stroke-width="4.000000" stroke-linejoin="round"></ellipse><ellipse data-v-2bb1f684="" id="circle" rx="6.899994" ry="6.900024" transform="matrix(-0.803296 0.59558 -0.59558 -0.803296 567.573 84.9861)" fill="#808080" fill-opacity="0.13"></ellipse><ellipse data-v-2bb1f684="" id="circle" rx="6.899994" ry="6.900024" transform="matrix(-0.803296 0.59558 -0.59558 -0.803296 567.573 84.9861)" stroke="#0078D6" stroke-opacity="0.4"></ellipse><ellipse data-v-2bb1f684="" id="circle" rx="12.600006" ry="12.599976" transform="matrix(-0.803296 0.59558 -0.59558 -0.803296 567.573 84.9872)" stroke="#0078D6" stroke-opacity="0.4" stroke-width="4.000000" stroke-linejoin="round"></ellipse><path data-v-2bb1f684="" id="path" d="M887.7 806.9L887.7 195.7" stroke="#0078D6" stroke-opacity="0.400000" stroke-width="2.000000" stroke-linejoin="round" stroke-linecap="round" stroke-dasharray="12"></path><circle data-v-2bb1f684="" id="circle" r="8.699996" transform="matrix(0.610169 -0.792271 -0.792271 -0.610169 214.621 31.2928)" fill="#48A9F8" fill-opacity="0.13"></circle><circle data-v-2bb1f684="" id="circle" r="8.699996" transform="matrix(0.610169 -0.792271 -0.792271 -0.610169 214.621 31.2928)" stroke="#0078D6" stroke-opacity="0.4"></circle><circle data-v-2bb1f684="" id="circle" r="8.699996" transform="matrix(0.610169 -0.792271 -0.792271 -0.610169 262.613 32.1705)" fill="#48A9F8" fill-opacity="0.13"></circle><circle data-v-2bb1f684="" id="circle" r="8.699996" transform="matrix(0.610169 -0.792271 -0.792271 -0.610169 262.613 32.1705)" stroke="#0078D6" stroke-opacity="0.4"></circle><circle data-v-2bb1f684="" id="circle" r="8.699996" transform="matrix(0.610169 -0.792271 -0.792271 -0.610169 238.617 31.7318)" fill="#48A9F8" fill-opacity="0.13"></circle><circle data-v-2bb1f684="" id="circle" r="8.699996" transform="matrix(0.610169 -0.792271 -0.792271 -0.610169 238.617 31.7318)" stroke="#0078D6" stroke-opacity="0.4"></circle><circle data-v-2bb1f684="" id="circle" r="8.699996" transform="matrix(0.610169 -0.792271 -0.792271 -0.610169 286.591 31.6093)" fill="#48A9F8" fill-opacity="0.13"></circle><circle data-v-2bb1f684="" id="circle" r="8.699996" transform="matrix(0.610169 -0.792271 -0.792271 -0.610169 286.591 31.6093)" stroke="#0078D6" stroke-opacity="0.4"></circle><circle data-v-2bb1f684="" id="circle" r="8.699996" transform="matrix(-0.803296 0.59558 -0.59558 -0.803296 931.83 85.8298)" fill="#48A9F8" fill-opacity="0.13"></circle><circle data-v-2bb1f684="" id="circle" r="8.699996" transform="matrix(-0.803296 0.59558 -0.59558 -0.803296 931.83 85.8298)" stroke="#0078D6" stroke-opacity="0.4"></circle><circle data-v-2bb1f684="" id="circle" r="8.699996" transform="matrix(-0.803296 0.59558 -0.59558 -0.803296 931.83 133.83)" fill="#48A9F8" fill-opacity="0.13"></circle><circle data-v-2bb1f684="" id="circle" r="8.699996" transform="matrix(-0.803296 0.59558 -0.59558 -0.803296 931.83 133.83)" stroke="#0078D6" stroke-opacity="0.4"></circle><circle data-v-2bb1f684="" id="circle" r="8.699996" transform="matrix(-0.803296 0.59558 -0.59558 -0.803296 931.83 109.83)" fill="#48A9F8" fill-opacity="0.13"></circle><circle data-v-2bb1f684="" id="circle" r="8.699996" transform="matrix(-0.803296 0.59558 -0.59558 -0.803296 931.83 109.83)" stroke="#0078D6" stroke-opacity="0.4"></circle><circle data-v-2bb1f684="" id="circle" r="8.699996" transform="matrix(-0.803296 0.59558 -0.59558 -0.803296 932.83 157.83)" fill="#48A9F8" fill-opacity="0.13"></circle><circle data-v-2bb1f684="" id="circle" r="8.699996" transform="matrix(-0.803296 0.59558 -0.59558 -0.803296 932.83 157.83)" stroke="#0078D6" stroke-opacity="0.4"></circle><ellipse data-v-2bb1f684="" id="circle" rx="8.700000" ry="8.700012" transform="matrix(-0.803296 0.59558 -0.59558 -0.803296 865.83 378.83)" fill="#808080" fill-opacity="0.13"></ellipse><ellipse data-v-2bb1f684="" id="circle" rx="8.700000" ry="8.700012" transform="matrix(-0.803296 0.59558 -0.59558 -0.803296 865.83 378.83)" stroke="#0078D6" stroke-opacity="0.4"></ellipse><path data-v-2bb1f684="" id="path" d="M410.859 855.352L749.751 853.063L822.493 977.561" stroke="#0078D6" stroke-opacity="0.400000" stroke-width="2.000000"></path><circle data-v-2bb1f684="" id="circle" r="8.699996" transform="matrix(-0.803296 0.59558 -0.59558 -0.803296 401.83 855.83)" fill="#808080" fill-opacity="0.13"></circle><circle data-v-2bb1f684="" id="circle" r="8.699996" transform="matrix(-0.803296 0.59558 -0.59558 -0.803296 401.83 855.83)" stroke="#0078D6" stroke-opacity="0.4"></circle><path data-v-2bb1f684="" id="path" d="M526 946.279L697.601 946.279L750.876 1039.37L911.5 1039.37" stroke="#0078D6" stroke-opacity="0.400000" stroke-width="2.000000"></path><ellipse data-v-2bb1f684="" id="circle" rx="8.700000" ry="8.700012" transform="matrix(-0.803296 0.59558 -0.59558 -0.803296 917.83 1038.83)" fill="#808080" fill-opacity="0.13"></ellipse><ellipse data-v-2bb1f684="" id="circle" rx="8.700000" ry="8.700012" transform="matrix(-0.803296 0.59558 -0.59558 -0.803296 917.83 1038.83)" stroke="#0078D6" stroke-opacity="0.4"></ellipse><ellipse data-v-2bb1f684="" id="circle" rx="8.700000" ry="8.700012" transform="matrix(-0.803296 0.59558 -0.59558 -0.803296 517.83 946.83)" fill="#808080" fill-opacity="0.13"></ellipse><ellipse data-v-2bb1f684="" id="circle" rx="8.700000" ry="8.700012" transform="matrix(-0.803296 0.59558 -0.59558 -0.803296 517.83 946.83)" stroke="#0078D6" stroke-opacity="0.4"></ellipse><path data-v-2bb1f684="" id="path" d="M749.5 61.9999L749.5 62.9L750.3 63.3M751.8 64.1L755.2 66.1" stroke="#0078D6" stroke-opacity="0.400000" stroke-linejoin="round"></path><path data-v-2bb1f684="" id="path" d="M815.8 101.1L762.3 70.2999" stroke="#0078D6" stroke-opacity="0.400000" stroke-linejoin="round" stroke-linecap="round" stroke-dasharray="8.2 8.2"></path><path data-v-2bb1f684="" id="path" d="M819.3 103.2L822.8 105.2M823.5 105.6L824.3 106L825 105.6M826.5 104.7L830 102.7" stroke="#0078D6" stroke-opacity="0.400000" stroke-linejoin="round"></path><path data-v-2bb1f684="" id="path" d="M890.5 67.8L837.1 98.6" stroke="#0078D6" stroke-opacity="0.400000" stroke-linejoin="round" stroke-linecap="round" stroke-dasharray="8.2243 8.2243"></path><path data-v-2bb1f684="" id="path" d="M894.1 65.7L897.5 63.7M898.3 63.2999L899 62.8999L899 61.9999M899 60.2999L899 56.2999" stroke="#0078D6" stroke-opacity="0.400000" stroke-linejoin="round"></path><path data-v-2bb1f684="" id="path" d="M899 48.0999L899 -13.6002" stroke="#0078D6" stroke-opacity="0.400000" stroke-linejoin="round" stroke-linecap="round" stroke-dasharray="8.2243 8.2243"></path><path data-v-2bb1f684="" id="path" d="M749.5 -16.9001L749.5 -20.9001" stroke="#0078D6" stroke-opacity="0.400000" stroke-linejoin="round" stroke-linecap="round"></path><path data-v-2bb1f684="" id="path" d="M749.5 53L749.5 -8.60004" stroke="#0078D6" stroke-opacity="0.400000" stroke-linejoin="round" stroke-linecap="round" stroke-dasharray="8.2243 8.2243"></path><path data-v-2bb1f684="" id="path" d="M749.5 61.0999L749.5 57.0999" stroke="#0078D6" stroke-opacity="0.400000" stroke-linejoin="round" stroke-linecap="round"></path><g data-v-2bb1f684="" opacity="0.000100"><rect data-v-2bb1f684="" id="矩形" x="1107.000000" y="606.000000" width="285.000000" height="276.000000" transform="rotate(180 1107.000000 606.000000)" fill="#000000"></rect></g><path data-v-2bb1f684="" id="形状" d="M856.512 437.355L874.202 452.448C873.365 457.569 872.932 462.798 872.932 468.027C872.932 473.256 873.365 478.485 874.202 483.606L856.512 498.7C853.784 501.018 852.785 504.791 854 508.187L854.244 508.888C859.132 522.5 866.37 535.006 875.768 546.057L876.254 546.623C878.577 549.345 882.331 550.369 885.734 549.183L907.691 541.394C915.793 548.024 924.84 553.253 934.617 556.919L938.857 579.829C939.505 583.36 942.287 586.109 945.825 586.756L946.554 586.891C960.625 589.424 975.425 589.424 989.495 586.891L990.225 586.756C993.763 586.109 996.544 583.36 997.192 579.829L1001.46 556.811C1011.16 553.145 1020.15 547.943 1028.2 541.34L1050.32 549.183C1053.69 550.369 1057.47 549.372 1059.8 546.623L1060.28 546.057C1069.68 534.979 1076.92 522.473 1081.81 508.888L1082.05 508.187C1083.26 504.818 1082.27 501.045 1079.54 498.7L1061.63 483.444C1062.47 478.377 1062.87 473.202 1062.87 468.054C1062.87 462.879 1062.47 457.704 1061.63 452.664L1079.54 437.409C1082.27 435.091 1083.26 431.317 1082.05 427.921L1081.81 427.22C1076.92 413.636 1069.68 401.103 1060.28 390.052L1059.8 389.486C1057.47 386.764 1053.72 385.739 1050.32 386.925L1028.2 394.769C1020.15 388.165 1011.16 382.936 1001.46 379.298L997.192 356.28C996.544 352.749 993.763 350 990.225 349.353L989.495 349.218C982.447 347.951 975.236 347.304 968.025 347.304C960.814 347.304 953.576 347.951 946.554 349.218L945.825 349.353C942.287 350 939.505 352.749 938.857 356.28L934.617 379.19C924.84 382.855 915.793 388.057 907.691 394.715L885.734 386.925C882.358 385.739 878.577 386.737 876.254 389.486L875.768 390.052C866.37 401.13 859.132 413.636 854.244 427.22L854 427.921C852.785 431.236 853.784 435.01 856.512 437.355ZM892.38 468C892.38 472.178 892.731 476.356 893.406 480.426L895.162 491.18L874.988 508.403C878.066 515.411 881.901 522.068 886.493 528.24L911.555 519.373L920.035 526.327C926.49 531.61 933.701 535.76 941.452 538.671L951.742 542.526L956.576 568.67C964.192 569.533 971.943 569.533 979.532 568.67L984.367 542.472L994.602 538.617C1002.3 535.706 1009.46 531.556 1015.86 526.3L1024.34 519.319L1049.56 528.267C1054.15 522.095 1058.02 515.465 1061.07 508.43L1040.68 491.045L1042.43 480.264C1043.11 476.248 1043.43 472.124 1043.43 468C1043.43 463.903 1043.08 459.753 1042.43 455.737L1040.68 444.955L1061.07 427.571C1057.99 420.563 1054.15 413.905 1049.56 407.733L1024.34 416.681L1015.86 409.701C1009.46 404.445 1002.3 400.294 994.602 397.383L984.394 393.475L979.559 367.276C971.943 366.414 964.192 366.414 956.603 367.276L951.769 393.421L941.479 397.275C933.701 400.186 926.517 404.337 920.062 409.62L911.582 416.574L886.52 407.706C881.928 413.878 878.066 420.509 875.015 427.544L895.189 444.767L893.406 455.575C892.731 459.645 892.38 463.822 892.38 468ZM968.027 518.133C994.278 518.133 1015.56 496.894 1015.56 470.695C1015.56 444.497 994.278 423.258 968.027 423.258C941.776 423.258 920.494 444.497 920.494 470.695C920.494 496.894 941.776 518.133 968.027 518.133ZM968.027 440.508C959.952 440.508 952.363 443.661 946.637 449.349C940.939 455.063 937.779 462.636 937.779 470.695C937.779 478.754 940.939 486.328 946.637 492.042C952.363 497.756 959.952 500.883 968.027 500.883C976.102 500.883 983.691 497.756 989.417 492.042C995.115 486.328 998.275 478.754 998.275 470.695C998.275 462.636 995.115 455.063 989.417 449.349C983.691 443.661 976.102 440.508 968.027 440.508Z" clip-rule="evenodd" fill-rule="evenodd" fill="#48A9F8" fill-opacity="0.650000"></path><path data-v-2bb1f684="" id="形状" d="M440.704 -142.517L426.027 -124.48C420.888 -125.198 415.65 -125.508 410.423 -125.386C405.195 -125.264 399.978 -124.71 394.878 -123.753L379.376 -141.086C376.995 -143.759 373.199 -144.67 369.832 -143.376L369.137 -143.117C355.644 -137.913 343.31 -130.385 332.481 -120.732L331.926 -120.232C329.259 -117.847 328.323 -114.07 329.587 -110.696L337.887 -88.9265C331.447 -80.672 326.43 -71.5051 322.994 -61.6458L300.189 -56.8727C296.674 -56.1423 293.99 -53.2972 293.426 -49.7452L293.308 -49.0131C291.103 -34.8871 291.448 -20.0912 294.309 -6.08337L294.461 -5.35748C295.19 -1.83563 298.004 0.881287 301.549 1.44696L324.66 5.17633C328.55 14.7838 333.961 23.6534 340.75 31.5455L333.424 53.8412C332.317 57.2438 333.403 61.0005 336.205 63.2584L336.782 63.7312C348.076 72.8689 360.748 79.8133 374.442 84.3836L375.149 84.6102C378.545 85.7467 382.294 84.6597 384.575 81.8781L399.409 63.6215C404.494 64.3404 409.677 64.6248 414.824 64.5047C419.998 64.3841 425.162 63.8584 430.181 62.9039L445.85 80.4492C448.231 83.1221 452.026 84.0331 455.393 82.739L456.088 82.4796C469.555 77.276 481.916 69.7478 492.745 60.0943L493.299 59.5951C495.967 57.2096 496.903 53.4328 495.638 50.0584L487.281 28.1284C493.695 19.9285 498.713 10.8157 502.125 1.03796L525.037 -3.76465C528.552 -4.49493 531.235 -7.34003 531.8 -10.8921L531.917 -11.6242C533.019 -18.7007 533.498 -25.9247 533.33 -33.1337C533.162 -40.3427 532.346 -47.5635 530.916 -54.554L530.765 -55.2798C530.035 -58.8017 527.222 -61.5186 523.677 -62.0843L500.674 -65.7892C496.782 -75.4777 491.37 -84.4012 484.526 -92.346L491.801 -114.479C492.908 -117.881 491.823 -121.638 489.02 -123.896L488.443 -124.369C477.149 -133.506 464.478 -140.451 450.783 -145.021L450.077 -145.248C446.734 -146.385 442.985 -145.298 440.704 -142.517ZM410.904 -105.944C406.727 -105.846 402.559 -105.398 398.505 -104.628L387.795 -102.622L370.106 -122.39C363.172 -119.148 356.606 -115.159 350.542 -110.425L359.992 -85.5762L353.238 -76.9362C348.107 -70.36 344.125 -63.0543 341.396 -55.2375L337.782 -44.8607L311.758 -39.4182C311.073 -31.7842 311.254 -24.0352 312.293 -16.4684L338.597 -12.2462L342.689 -2.10309C345.778 5.52399 350.095 12.5822 355.498 18.8586L362.675 27.1738L354.317 52.6003C360.595 57.0464 367.313 60.7527 374.417 63.6397L391.322 42.8495L402.141 44.3532C406.172 44.9346 410.302 45.1624 414.425 45.0663C418.521 44.9708 422.662 44.523 426.662 43.7814L437.399 41.7751L455.255 61.7546C462.189 58.5133 468.755 54.5241 474.819 49.7903L465.285 24.781L472.066 16.1403C477.171 9.61884 481.154 2.36713 483.885 -5.39569L487.554 -15.6927L513.632 -21.1365C514.317 -28.7705 514.136 -36.5195 513.097 -44.0863L486.847 -48.3098L482.754 -58.5068C479.662 -66.215 475.345 -73.3001 469.914 -79.6299L462.764 -87.9457L471.045 -113.208C464.767 -117.654 458.048 -121.361 450.944 -124.248L434.196 -103.677L423.349 -105.207C419.265 -105.787 415.08 -106.041 410.904 -105.944ZM362.548 -29.1487C363.16 -2.90485 384.889 17.8759 411.081 17.2651C437.272 16.6544 458.009 -5.11664 457.397 -31.3605C456.785 -57.6043 435.056 -78.385 408.864 -77.7743C382.673 -77.1635 361.936 -55.3925 362.548 -29.1487ZM440.152 -30.9583C439.964 -39.0312 436.634 -46.5447 430.815 -52.136C424.97 -57.6998 417.324 -60.6822 409.267 -60.4943C401.211 -60.3065 393.713 -56.9709 388.133 -51.1407C382.554 -45.2836 379.605 -37.6237 379.793 -29.5508C379.982 -21.4778 383.284 -13.9637 389.13 -8.37299C394.976 -2.80927 402.621 0.173157 410.678 -0.0147095C418.735 -0.202576 426.233 -3.53815 431.812 -9.36835C437.364 -15.2249 440.34 -22.8853 440.152 -30.9583Z" clip-rule="evenodd" fill-rule="evenodd" fill="#48A9F8" fill-opacity="0.650000"></path><path data-v-2bb1f684="" id="path" d="M718 272.3L605.6 207.4L493.2 272.3L493.2 402.1L605.6 467L718 402.1L718 272.3Z" stroke="#0078D6" stroke-opacity="0.400000" stroke-linejoin="round"></path></g></svg>